<svg xmlns="http://www.w3.org/2000/svg" version="1.0" viewBox="0 0 1133.858 1133.858"><path fill="#001b47" d="M744.988,940.532c0,0,114.42,46.789,173.616,49.929c59.194,3.141,52.651-55.046,43.409-65.405 c-32.052-35.925-143.888-56.899-170.34-68.692c-26.448-11.792-47.667,29.478-48.786,36.729 C741.767,900.343,744.988,940.532,744.988,940.532z"/><path fill="#001b47" d="M382.604,1024.621c0,0-115.169,44.914-174.407,47.089c-59.237,2.173-51.747-55.899-42.336-66.107 c32.635-35.399,144.799-54.543,171.437-65.903s47.183,30.253,48.181,37.521C386.479,984.49,382.604,1024.621,382.604,1024.621z"/><rect width="434" height="120" x="361.676" y="658.929" fill="#1381bb"/><path fill="#3e98d4" d="M723.361,988.789c-14.791-1.746-363.664-43.75-490.389-129.482c-5.453-3.688-10.413-6.928-14.79-9.786 c-23.792-15.536-38.151-24.915-45.275-51.864c-12.687-48.004,19.734-96.495,72.273-108.093c7.56-1.669,15.32-2.515,23.067-2.515 c15.683,0,31.28,3.504,45.227,10.148l468.743,148.358l-40.47,145.405L723.361,988.789z"/><path fill="#1381bb" d="M723.361,988.789c-14.791-1.746-217.039-27.787-377.641-83.838 c-6.215-2.168,118.202-102.566,113.826-105.425c-23.792-15.537-143.39-14.871-150.512-41.821 c-12.688-48.007-116.393-56.543-63.854-68.141c7.56-1.669,15.32-2.515,23.067-2.515c15.683,0,31.28,3.504,45.227,10.148 l468.743,148.358l-40.47,145.405L723.361,988.789z"/><path fill="#e54c42" d="M837.676,656.543v0.013c-4,17.713-18.585,32.349-39.268,37.745l-430.328,24.958 c-58.838-1.081-57.825-34.913-59.018-55.742l0.148-0.857l4.77-21.264l18.153-44.625c0,0,30.459-74.546,42.283-98.874 c31.087-63.957,147.252-89.588,219.245-89.588s140.721,9.689,197.726,63.405c34.36,32.376,42.289,156.229,42.289,156.229v0.027 L837.676,656.543z"/><path fill="#001b47" d="M744.676,702.888c0,12.765-9.628,24.041-22.136,24.041H457.836c-12.509,0-23.16-11.276-23.16-24.041 v-160.17c0-12.765,10.651-21.789,23.16-21.789h264.704c12.508,0,22.136,9.024,22.136,21.789V702.888z"/><path fill="#001b47" d="M722.541,726.929H457.836c-12.803,0-23.16-10.923-23.16-24.041v-160.17 c0-13.118,10.357-22.789,23.16-22.789h264.704c13.069,0,23.136,9.671,23.136,22.789v160.17 C745.676,716.006,735.609,726.929,722.541,726.929z M457.836,520.929c-12.059,0-21.16,9.416-21.16,21.789v160.17 c0,12.375,9.102,22.041,21.16,22.041h264.704c12.325,0,22.136-9.666,22.136-22.041v-160.17c0-12.374-9.811-21.789-22.136-21.789 H457.836z"/><ellipse cx="590.927" cy="628.199" fill="#ebeff0" rx="18.107" ry="16.548"/><path fill="#001b47" d="M590.927,645.422c-10.356,0-18.783-7.727-18.783-17.223s8.426-17.222,18.783-17.222 c10.356,0,18.782,7.725,18.782,17.222S601.283,645.422,590.927,645.422z M590.927,612.327c-9.613,0-17.433,7.121-17.433,15.873 c0,8.753,7.82,15.874,17.433,15.874c9.614,0,17.434-7.12,17.434-15.874C608.36,619.447,600.541,612.327,590.927,612.327z"/><path fill="#3e98d4" d="M292.738,945.22c0,0,19.356-16.822,41.911-32.585c11.087-7.745,27.266-18.851,48.089-33.011 c35.971-24.459,86.808-58.721,151.104-101.839c105.097-70.476,222.686-148.868,283.426-189.325 c4.008-2.635,24.244-15.681,38.814-19.947c9.058-2.65,18.448-3.995,27.913-3.995c43.247,0,81.688,27.25,93.482,66.267 c0.598,1.976,1.17,3.82,1.712,5.56c4.331,13.941,7.755,24.953,2.989,39.917c-3.969,12.47-12.93,25.635-31.516,50.431 c-88.002,117.413-499.335,316.084-516.802,324.485l-13.179,6.336L292.738,945.22z"/><path fill="#001b47" d="M420.682,1059.536c-0.48,0-0.958-0.173-1.334-0.502L291.404,946.741c-0.438-0.386-0.69-0.941-0.69-1.525 c0.001-0.585,0.256-1.14,0.696-1.522c0.195-0.17,19.697-17.075,42.08-32.717c11.097-7.754,27.283-18.865,48.111-33.026 c36.041-24.507,86.884-58.774,151.115-101.846c105.186-70.539,222.726-148.898,283.43-189.329 c3.979-2.617,24.53-15.862,39.367-20.206c9.246-2.706,18.828-4.076,28.481-4.076c44.133,0,83.37,27.84,95.418,67.703 c0.596,1.971,1.169,3.813,1.707,5.544c4.44,14.287,7.944,25.565,2.986,41.134c-4.058,12.749-13.1,26.045-31.825,51.028 c-88.263,117.762-500.058,316.686-517.543,325.096l-13.181,6.337C421.279,1059.47,420.979,1059.536,420.682,1059.536z M295.827,945.239l125.185,109.87l11.972-5.756c17.45-8.394,428.384-206.896,516.059-323.876 c18.443-24.606,27.327-37.638,31.207-49.832c4.572-14.354,1.234-25.097-2.99-38.695c-0.545-1.748-1.12-3.6-1.719-5.582 c-11.538-38.17-49.184-64.83-91.545-64.83c-9.268,0-18.468,1.318-27.344,3.914c-14.284,4.183-34.387,17.141-38.272,19.698 c-60.689,40.422-178.225,118.78-283.408,189.315c-64.224,43.066-115.06,77.327-151.094,101.831 c-20.813,14.151-36.985,25.252-48.069,32.997C317.472,927.107,301.093,940.769,295.827,945.239z"/><path fill="#ebeff0" d="M630.226,420.45c-11.751,18.105-91.519,16.674-105.226,0c1.971-18.509,6.179-25.267,9.985-42.562 c11.397,12.155,26.898,19.628,43.978,19.628c16.024,0,30.664-6.569,41.819-17.429C625.477,400.822,630.414,410.426,630.226,420.45 z"/><path fill="#001b47" d="M620.782,379.924c-11.156,10.86-25.795,17.511-41.819,17.511c-17.079,0-32.58-7.596-43.978-19.75 c4.005-18.212,7.553-31.756,7.553-31.756h70.149C612.688,345.929,616.627,361.552,620.782,379.924z"/><path fill="#ebeff0" d="M659.904,308.077c0,11.197-8.351,20.276-18.657,20.276c-0.541,0-1.066-0.027-1.578-0.082 c-6.017,31.851-31.514,55.756-62.056,55.756c-30.65,0-56.213-24.081-62.122-56.093c-1.214,0.285-2.468,0.418-3.75,0.418 c-10.309,0-18.671-9.079-18.671-20.276s8.362-20.276,18.671-20.276c0.876,0,1.754,0.067,2.603,0.202 c2.131-54.459,29.639-63.229,63.27-63.229c33.591,0,61.085,8.756,63.255,63.041c0.123-0.014,0.257-0.014,0.379-0.014 C651.553,287.801,659.904,296.88,659.904,308.077z"/><path fill="#001b47" d="M641.049,325.12c9.833-15.374,12.815-43.932,26.052-59.004c10.382-11.818,20.878-19.147,10.096-35.81 c-13.292-20.543-36.796-30.398-56.115-15.046c0.043-14.327,2.115-33.327-12.379-42.692c-16.693-10.784-36.596,2.11-51.63,8.125 c-26.127,10.456-31.208-5.975-50.931-17.831c-18.4-11.065-33.851-4.102-31.474,28.253c-37.321-6.295-43.79,17.942-41.064,36.084 c3.639,24.211,17.952,31.541,40.129,35.714c7.756,1.461,15.856-0.176,17.645,9.143c1.196,6.235-9.015,12.936-5.262,18.618 c4.927,7.46,11.27-1.904,15.745,0.556c4.683,2.604,11.96,37.819,13.746,42.518c-0.222-0.582-6.313-72.035,12.726-62.011 c12.047,6.342,7.483-19.181,20.983-18.567c23.504,1.067,35.464,11.497,47.216,14.39c15.601,3.839,23.485-9.165,33.726-0.899 c8.192,6.612,7.644,29.677,9.88,40.601"/><path fill="#001b47" d="M544.828,772.443c-0.201,0-0.407-0.03-0.611-0.093l-163.63-51.792 c-4.113,0.176-44.322,2.241-70.546,16.006c-0.988,0.518-2.211,0.14-2.732-0.851c-0.52-0.99-0.139-2.213,0.851-2.733 c28.357-14.883,70.84-16.422,72.634-16.48c0.226-0.007,0.458,0.023,0.676,0.093l163.969,51.898 c1.066,0.337,1.656,1.475,1.319,2.54C546.484,771.893,545.687,772.443,544.828,772.443z"/><path fill="#001b47" d="M342.883,652.167c-0.515,0-1.031-0.197-1.425-0.588c-0.793-0.788-0.799-2.068-0.012-2.861 c2.07-2.083,51.236-50.913,102.93-42.752c1.103,0.174,1.858,1.21,1.681,2.314c-0.172,1.104-1.195,1.855-2.314,1.684 c-49.626-7.839-98.933,41.11-99.423,41.607C343.924,651.968,343.404,652.167,342.883,652.167z"/><path fill="#001b47" d="M342.882,619.071c-0.919,0-1.752-0.631-1.969-1.565c-0.253-1.088,0.422-2.175,1.512-2.429 c3.111-0.724,76.411-17.659,93.7-9.839c1.019,0.46,1.472,1.66,1.01,2.678c-0.46,1.019-1.661,1.469-2.676,1.009 c-12.841-5.809-65.217,4.063-91.116,10.094C343.188,619.054,343.034,619.071,342.882,619.071z"/><path fill="#001b47" d="M342.882,597.847c-0.422,0-0.848-0.132-1.212-0.406c-0.895-0.67-1.077-1.938-0.406-2.833 c1.297-1.728,7.164-15.21,13.375-29.483c12.535-28.806,29.703-68.259,37.292-77.186c11.602-13.649,61.177-42.335,83.888-46.545 c1.1-0.202,2.154,0.521,2.358,1.621c0.204,1.099-0.521,2.155-1.621,2.359c-21.601,4.003-70.557,32.263-81.544,45.189 c-7.197,8.468-24.929,49.215-36.663,76.179c-8.06,18.522-12.337,28.283-13.847,30.295 C344.105,597.566,343.499,597.847,342.882,597.847z"/><path fill="#001b47" d="M817.269,590.485c-0.043,0-0.084-0.003-0.127-0.005c-1.115-0.07-1.963-1.031-1.894-2.146 c0.044-0.714,4.082-71.698-27.269-103.05c-31.585-31.583-111.522-49.634-112.326-49.81c-1.091-0.244-1.778-1.324-1.537-2.416 c0.241-1.09,1.32-1.779,2.413-1.537c3.329,0.74,81.89,18.48,114.311,50.903c32.647,32.646,28.633,103.176,28.447,106.164 C819.22,589.659,818.33,590.485,817.269,590.485z"/><path fill="#001b47" d="M566.534,452.683c-49.483,0-61.986-33.124-62.115-33.483c-0.377-1.052,0.169-2.211,1.221-2.587 c1.047-0.378,2.209,0.167,2.585,1.217l0,0c0.53,1.449,13.571,35.458,69.204,30.284c60.197-5.599,75.725-18.621,80.521-36.452 c0.291-1.078,1.396-1.719,2.478-1.429c1.079,0.292,1.72,1.401,1.43,2.479c-6.275,23.332-29.842,34.388-84.056,39.432 C573.85,452.511,570.094,452.683,566.534,452.683z"/><path fill="#001b47" d="M512.27,322.85c-1.014,0-1.891-0.762-2.007-1.794c-1.915-16.806-11.11-18.396-11.203-18.41 c-1.105-0.168-1.863-1.201-1.695-2.305c0.168-1.105,1.211-1.862,2.305-1.696c0.503,0.076,12.354,2.105,14.614,21.953 c0.127,1.11-0.671,2.113-1.781,2.24C512.424,322.846,512.347,322.85,512.27,322.85z"/><path fill="#001b47" d="M645.799,322.85c-1.033,0-1.916-0.79-2.012-1.84c-1.748-19.237,9.562-24.997,10.043-25.233 c1.008-0.489,2.218-0.075,2.707,0.93c0.489,1.001,0.078,2.206-0.917,2.701c-0.406,0.208-9.283,4.948-7.802,21.238 c0.101,1.112-0.72,2.096-1.833,2.197C645.923,322.848,645.861,322.85,645.799,322.85z"/><path fill="#001b47" d="M543.073,341.917c-15.222,0-27.604-12.383-27.604-27.603c0-15.221,12.382-27.602,27.604-27.602 c15.221,0,27.603,12.381,27.603,27.602C570.676,329.534,558.294,341.917,543.073,341.917z M543.073,290.758 c-12.991,0-23.557,10.568-23.557,23.556c0,12.99,10.566,23.555,23.557,23.555c12.989,0,23.557-10.565,23.557-23.555 C566.629,301.326,556.062,290.758,543.073,290.758z"/><path fill="#001b47" d="M609.175,341.917c-15.222,0-27.605-12.383-27.605-27.603c0-15.221,12.383-27.602,27.605-27.602 c15.22,0,27.603,12.381,27.603,27.602C636.778,329.534,624.395,341.917,609.175,341.917z M609.175,290.758 c-12.99,0-23.557,10.568-23.557,23.556c0,12.99,10.567,23.555,23.557,23.555c12.989,0,23.556-10.565,23.556-23.555 C632.731,301.326,622.164,290.758,609.175,290.758z"/><path fill="#001b47" d="M583.592,316.338c-0.373,0-0.75-0.104-1.088-0.318c-3.737-2.389-10.771-0.667-13.163,0.198 c-1.044,0.377-2.21-0.164-2.59-1.214c-0.382-1.051,0.16-2.21,1.208-2.59c0.43-0.156,10.537-3.758,16.724,0.197 c0.942,0.601,1.218,1.853,0.615,2.793C584.912,316.008,584.26,316.338,583.592,316.338z"/><path fill="#001b47" d="M272.555,728.028c-0.641,0-1.275-0.306-1.667-0.875c-0.635-0.919-0.403-2.179,0.516-2.814 c15.031-10.374,75.646-8.878,78.223-8.812c1.117,0.03,2,0.958,1.969,2.077c-0.028,1.117-0.966,1.989-2.076,1.969 c-0.622-0.017-61.867-1.532-75.816,8.096C273.352,727.912,272.952,728.028,272.555,728.028z"/><path fill="#001b47" d="M590.429,512.929c-0.75,0-1.44-0.378-1.792-1.044l-31.702-60.295c-0.519-0.988-0.14-2.204,0.85-2.723 c0.986-0.519,2.212-0.137,2.734,0.854l29.738,56.577l27.69-63.721c0.447-1.025,1.638-1.495,2.663-1.049 c1.025,0.445,1.495,1.637,1.049,2.662l-29.374,67.56c-0.311,0.714-1.004,1.181-1.781,1.181 C590.479,512.929,590.454,512.929,590.429,512.929z"/><path fill="#001b47" d="M170.155,1020.178c-0.379,0-0.763-0.107-1.104-0.331c-0.929-0.61-1.195-1.85-0.594-2.782 c0.712-1.104,18.638-27.279,123.792-53.476c1.075-0.271,2.182,0.39,2.452,1.474c0.272,1.084-0.391,2.182-1.474,2.453 c-102.958,25.649-121.205,51.498-121.378,51.756C171.458,1019.858,170.813,1020.178,170.155,1020.178z"/><path fill="#001b47" d="M270.009,1086.929h-0.004c-0.738,0-1.431-0.694-1.849-1.312c-0.845-1.242-1.801-2.813,10.501-36.071 c5.91-15.976,12.137-31.886,12.199-32.044c0.38-0.966,1.425-1.531,2.434-1.246c1.001,0.284,1.623,1.261,1.44,2.284 c-0.318,1.776-7.941,44.042-20.46,64.041C272.335,1085.67,271.338,1086.929,270.009,1086.929z M284.07,1046.398 c-3.947,10.573-7.389,20.187-9.625,27.038C278.241,1065.47,281.492,1055.602,284.07,1046.398z"/><path fill="#001b47" d="M345.893,1077.894c-0.949,0-2.121-0.469-4.046-1.62c-19.582-11.699-49.512-55.125-50.778-56.967 c-0.589-0.859-0.43-2.024,0.366-2.695c0.799-0.669,1.972-0.626,2.719,0.102c0.138,0.135,13.936,13.625,27.37,27.396 c28.073,28.775,27.339,30.58,26.628,32.322C347.784,1077.334,346.918,1077.894,345.893,1077.894z M310.324,1038.471 c9.211,11.691,20.828,25.164,30.345,32.153C334.997,1063.839,323.391,1051.653,310.324,1038.471z"/><path fill="#001b47" d="M952.741,939.774c-0.877,0-1.686-0.577-1.942-1.462c-9.242-31.952-153.616-63.545-155.072-63.861 c-1.092-0.236-1.787-1.313-1.55-2.406c0.237-1.092,1.315-1.784,2.406-1.549c6.047,1.309,148.196,32.439,158.105,66.691 c0.31,1.073-0.31,2.196-1.383,2.506C953.117,939.748,952.929,939.774,952.741,939.774z"/><path fill="#001b47" d="M816.792,996.929h-0.003c-0.744,0-1.448-0.574-1.98-1.161c-3.873-4.252-0.829-41.971,0.66-57.977 c0.094-1.034,0.957-1.863,1.994-1.863h0.021c1.028,0,1.894,0.671,2.011,1.692c1.378,12.106,5.407,52.262-0.592,58.16 C818.105,996.564,817.315,996.929,816.792,996.929z M817.604,963.016c-0.667,11.685-0.89,21.728-0.41,26.737 C818.212,984.866,818.246,974.78,817.604,963.016z"/><path fill="#001b47" d="M760.896,977.789c-0.839,0-1.577-0.359-2.027-0.989c-0.38-0.532-0.514-1.194-0.374-1.859 c0.293-1.4,0.738-3.515,29.745-21.706c13.998-8.779,28.068-17.142,28.208-17.225c0.925-0.551,2.12-0.279,2.719,0.621 c0.596,0.896,0.386,2.103-0.48,2.745C806.525,948.387,766.417,977.789,760.896,977.789z"/></svg>